<svg xmlns="http://www.w3.org/2000/svg" viewBox="0 0 32 32" fill="none" stroke="currentColor" stroke-width="1.5" stroke-linecap="round" stroke-linejoin="round">
  <!-- Fireball — single-target fire magic (no peripheral pattern) -->
  <!-- Main flame tongue -->
  <path d="M16 27c-5-2-7-7-5-12 1 3 3 2 3 0 0-5 4-9 4-9 0 3 1 5-1 8 3-1 5-4 5-4s2 6 0 11c-1 3-3 5-6 6z"/>
  <!-- Inner core heat (filled ellipse, partial) -->
  <ellipse cx="16" cy="22" rx="3" ry="2" fill="currentColor" stroke="none" opacity="0.35"/>
  <!-- Small flicker left -->
  <path d="M12 20c-1-2 0-4 2-5"/>
  <!-- Small flicker right -->
  <path d="M20 20c1-2 0-4-2-5"/>
</svg>
