<svg xmlns="http://www.w3.org/2000/svg" viewBox="0 0 800 450" preserveAspectRatio="xMidYMid slice">
  <defs>
    <linearGradient id="sky" x1="0" y1="0" x2="0" y2="1">
      <stop offset="0" stop-color="#2a0410"/>
      <stop offset="0.5" stop-color="#5a0818"/>
      <stop offset="1" stop-color="#c04010"/>
    </linearGradient>
    <linearGradient id="mtn" x1="0" y1="0" x2="0" y2="1">
      <stop offset="0" stop-color="#1a0208"/>
      <stop offset="1" stop-color="#401010"/>
    </linearGradient>
  </defs>
  <rect width="800" height="450" fill="url(#sky)"/>
  <circle cx="620" cy="120" r="55" fill="#ffb040" opacity="0.8"/>
  <circle cx="620" cy="120" r="80" fill="#ffb040" opacity="0.15"/>
  <!-- dragon mountain silhouettes -->
  <path d="M0,320 L80,230 L150,280 L220,180 L310,260 L400,200 L500,290 L580,220 L660,270 L740,210 L800,280 L800,450 L0,450 Z" fill="url(#mtn)"/>
  <path d="M0,370 L120,310 L200,360 L290,290 L370,340 L460,300 L550,360 L640,320 L720,370 L800,340 L800,450 L0,450 Z" fill="#0a0204" opacity="0.85"/>
  <!-- flying dragon silhouette -->
  <g transform="translate(400,160)" fill="#0a0204">
    <path d="M-60,0 Q-80,-20 -100,-10 Q-80,-5 -65,5 L-30,10 Q-10,5 0,0 Q10,5 30,10 L65,5 Q80,-5 100,-10 Q80,-20 60,0 Q40,15 20,12 L0,20 L-20,12 Q-40,15 -60,0 Z"/>
    <circle cx="0" cy="5" r="8"/>
  </g>
  <!-- smaller distant dragons -->
  <g transform="translate(180,90) scale(0.4)" fill="#0a0204" opacity="0.7">
    <path d="M-60,0 Q-80,-20 -100,-10 Q-80,-5 -65,5 L0,15 L65,5 Q80,-5 100,-10 Q80,-20 60,0 L0,20 Z"/>
  </g>
  <g transform="translate(650,80) scale(0.3)" fill="#0a0204" opacity="0.6">
    <path d="M-60,0 Q-80,-20 -100,-10 Q-80,-5 -65,5 L0,15 L65,5 Q80,-5 100,-10 Q80,-20 60,0 L0,20 Z"/>
  </g>
</svg>
