<svg xmlns="http://www.w3.org/2000/svg" viewBox="0 0 128 128">
  <defs>
    <linearGradient id="scale" x1="0" y1="0" x2="0" y2="1">
      <stop offset="0" stop-color="#ffd060"/>
      <stop offset="1" stop-color="#c04010"/>
    </linearGradient>
  </defs>
  <!-- shield -->
  <path d="M64,10 L110,28 L110,72 Q110,104 64,120 Q18,104 18,72 L18,28 Z" fill="url(#scale)" stroke="#200408" stroke-width="3"/>
  <!-- dragon wings -->
  <path d="M64,40 Q40,30 30,50 Q45,55 55,60 Z" fill="#200408"/>
  <path d="M64,40 Q88,30 98,50 Q83,55 73,60 Z" fill="#200408"/>
  <!-- dragon head -->
  <path d="M64,55 Q50,65 50,85 Q64,95 78,85 Q78,65 64,55 Z" fill="#200408"/>
  <circle cx="58" cy="74" r="3" fill="#ffd060"/>
  <circle cx="70" cy="74" r="3" fill="#ffd060"/>
  <!-- flame -->
  <path d="M64,98 Q58,106 60,112 Q64,108 64,112 Q68,108 68,112 Q70,106 64,98 Z" fill="#ffd060"/>
</svg>
